#!OML:ASF H:\LiuWeirdWalks\Patient Classification 1\Patient 1\Session 1\male.ASF
:FULLY-SPECIFIED
:DEGREES
500
root 1.32686 18.1551 -22.0077 7.70449 1.55293 -11.7847
lowerback 12.1688 -1.23746 -9.13079
upperback 1.83623 -3.02411 -3.9856
thorax -4.63795 -1.3596 1.40701
lowerneck -15.7547 2.5824 8.13297
upperneck 13.4102 1.00764 3.74149
head 6.74654 1.23936 0.00559746
rclavicle -4.21423e-014 -1.27222e-014
rhumerus -22.8578 -29.9297 -1.10561
rradius 35.413
rwrist -6.73429
rhand -19.5523 -5.54127
rfingers 7.12502
rthumb 6.77197 -35.413
lclavicle -4.21423e-014 -1.27222e-014
lhumerus -24.6261 31.4152 36.2037
lradius 32.7121
lwrist 9.92599
lhand -20.9756 -2.63049
lfingers 7.12502
lthumb 5.39788 27.2808
rfemur -4.62478 -3.15056 24.2257
rtibia 44.487
rfoot 3.16071 -15.9222
rtoes -5.10192
lfemur -21.5226 3.67398 -5.16703
ltibia 31.2924
lfoot -10.1398 15.0911
ltoes -7.61952
501
root 1.32034 18.1491 -21.9595 7.47077 1.70798 -11.8593
lowerback 12.2844 -1.24909 -9.30182
upperback 1.89521 -3.07601 -4.09658
thorax -4.6321 -1.38401 1.39492
lowerneck -15.7115 2.5718 8.14071
upperneck 13.4798 0.955128 3.96617
head 6.76169 1.23671 0.0718295
rclavicle -3.33958e-014 -1.90833e-014
rhumerus -22.8397 -29.9341 -0.841747
rradius 35.4439
rwrist -6.69467
rhand -19.5741 -5.66671
rfingers 7.12502
rthumb 6.75096 -35.5391
lclavicle -3.33958e-014 -1.90833e-014
lhumerus -24.6942 31.3134 36.3515
lradius 32.8031
lwrist 9.9147
lhand -21.1034 -2.48656
lfingers 7.12502
lthumb 5.27455 27.4278
rfemur -4.98899 -3.21908 24.4757
rtibia 45.1023
rfoot 2.31651 -16.3658
rtoes -5.11862
lfemur -21.205 3.32179 -5.05482
ltibia 31.4076
lfoot -10.21 15.4619
ltoes -7.60935
502
root 1.31453 18.142 -21.9114 7.22825 1.8412 -11.9532
lowerback 12.4016 -1.261 -9.43533
upperback 1.95242 -3.12382 -4.20104
thorax -4.63085 -1.40683 1.3685
lowerneck -15.6211 2.56183 8.10531
upperneck 13.5066 0.915025 4.22691
head 6.75482 1.23869 0.156947
rclavicle 1.82882e-014 3.18055e-014
rhumerus -22.822 -29.8705 -0.58028
rradius 35.5092
rwrist -6.65995
rhand -19.6088 -5.75027
rfingers 7.12502
rthumb 6.7175 -35.6237
lclavicle 1.82882e-014 3.18055e-014
lhumerus -24.7879 31.2363 36.5001
lradius 32.87
lwrist 9.90561
lhand -21.2009 -2.3642
lfingers 7.12502
lthumb 5.18035 27.5525
rfemur -5.35365 -3.28129 24.737
rtibia 45.6526
rfoot 1.48366 -16.8421
rtoes -5.06818
lfemur -20.8864 2.93314 -4.9285
ltibia 31.5515
lfoot -10.2881 15.904
ltoes -7.52177
503
root 1.30964 18.1335 -21.8635 6.98314 1.95945 -12.0358
lowerback 12.525 -1.27629 -9.55136
upperback 2.00205 -3.17601 -4.31247
thorax -4.642 -1.43145 1.32609
lowerneck -15.5599 2.56911 8.1093
upperneck 13.5846 0.883993 4.48071
head 6.77038 1.24891 0.235381
rclavicle -1.51076e-014 -6.36111e-014
rhumerus -22.8076 -29.7401 -0.328778
rradius 35.6068
rwrist -6.65181
rhand -19.6743 -5.83091
rfingers 7.12502
rthumb 6.6542 -35.7064
lclavicle -1.51076e-014 -6.36111e-014
lhumerus -24.9173 31.1666 36.6425
lradius 32.922
lwrist 9.90987
lhand -21.2552 -2.28376
lfingers 7.12502
lthumb 5.12792 27.6342
rfemur -5.72049 -3.34518 24.9733
rtibia 46.1398
rfoot 0.639539 -17.3527
rtoes -4.97178
lfemur -20.5746 2.50644 -4.82332
ltibia 31.7227
lfoot -10.3866 16.4018
ltoes -7.35476
504
root 1.30571 18.1243 -21.8154 6.72855 2.04951 -12.1015
lowerback 12.6639 -1.28876 -9.66328
upperback 2.03915 -3.22799 -4.42971
thorax -4.67567 -1.45482 1.27598
lowerneck -15.5055 2.56002 8.05759
upperneck 13.7076 0.833255 4.77195
head 6.80112 1.25208 0.3332
rclavicle -2.38542e-015 -2.54444e-014
rhumerus -22.7879 -29.5462 -0.0852605
rradius 35.7397
rwrist -6.7238
rhand -19.7184 -5.86022
rfingers 7.12502
rthumb 6.6117 -35.737
lclavicle -2.38542e-015 -2.54444e-014
lhumerus -25.0975 31.1048 36.7748
lradius 32.9577
lwrist 9.91901
lhand -21.2892 -2.22605
lfingers 7.12502
lthumb 5.09515 27.6927
rfemur -6.08372 -3.40554 25.1757
rtibia 46.5623
rfoot -0.237291 -17.883
rtoes -4.91977
lfemur -20.2463 2.06437 -4.74757
ltibia 31.913
lfoot -10.5189 16.9326
ltoes -7.09011
505
root 1.30233 18.1148 -21.7671 6.47546 2.11036 -12.1504
lowerback 12.7956 -1.29669 -9.77098
upperback 2.0729 -3.27387 -4.55808
thorax -4.71044 -1.47522 1.21067
lowerneck -15.4561 2.57279 8.06897
upperneck 13.822 0.805037 5.01715
head 6.83102 1.26518 0.408607
rclavicle -1.74931e-014 -1.27222e-014
rhumerus -22.7669 -29.388 0.14911
rradius 35.8626
rwrist -6.73731
rhand -19.7576 -5.87101
rfingers 7.12502
rthumb 6.57379 -35.749
lclavicle -1.74931e-014 -1.27222e-014
lhumerus -25.2936 31.0754 36.9003
lradius 32.963
lwrist 9.92683
lhand -21.2813 -2.22032
lfingers 7.12502
lthumb 5.10271 27.6982
rfemur -6.45992 -3.45326 25.3505
rtibia 46.9206
rfoot -1.13709 -18.4493
rtoes -4.90548
lfemur -19.9077 1.62333 -4.6984
ltibia 32.1115
lfoot -10.6925 17.4742
ltoes -6.73841
506
root 1.29939 18.1053 -21.7182 6.22072 2.15061 -12.1714
lowerback 12.9229 -1.30626 -9.89416
upperback 2.10874 -3.32369 -4.68805
thorax -4.7394 -1.49759 1.15249
lowerneck -15.4024 2.56501 8.02082
upperneck 13.9138 0.763595 5.2653
head 6.85194 1.26801 0.492715
rclavicle -1.59028e-014 -1.90833e-014
rhumerus -22.6989 -29.2762 0.359595
rradius 35.9672
rwrist -6.69175
rhand -19.8021 -5.88152
rfingers 7.12502
rthumb 6.53088 -35.7608
lclavicle -1.59028e-014 -1.90833e-014
lhumerus -25.5252 31.0886 37.0293
lradius 32.9524
lwrist 9.93034
lhand -21.2614 -2.21893
lfingers 7.12502
lthumb 5.12194 27.6992
rfemur -6.83725 -3.49884 25.4827
rtibia 47.2138
rfoot -2.09206 -19.0241
rtoes -4.91868
lfemur -19.5516 1.2058 -4.68926
ltibia 32.3074
lfoot -10.8764 17.9981
ltoes -6.38705
507
root 1.29688 18.0954 -21.6685 5.95934 2.16008 -12.1749
lowerback 13.0286 -1.31041 -10.0269
upperback 2.16771 -3.3628 -4.82081
thorax -4.73212 -1.51674 1.09373
lowerneck -15.3628 2.57053 8.00817
upperneck 13.9728 0.740153 5.46807
head 6.86512 1.27617 0.5583
rclavicle 7.95139e-015 1.59028e-014
rhumerus -22.5986 -29.274 0.556068
rradius 36.0435
rwrist -6.62425
rhand -19.8058 -5.86979
rfingers 7.12502
rthumb 6.52733 -35.7492
lclavicle 7.95139e-015 1.59028e-014
lhumerus -25.7413 31.1572 37.1807
lradius 32.9115
lwrist 9.91472
lhand -21.2297 -2.21438
lfingers 7.12502
lthumb 5.15254 27.703
rfemur -7.21546 -3.53245 25.5855
rtibia 47.4421
rfoot -3.06692 -19.6003
rtoes -4.97517
lfemur -19.1676 0.814891 -4.70591
ltibia 32.4949
lfoot -11.0613 18.5071
ltoes -6.05856
508
root 1.29409 18.0856 -21.6189 5.70351 2.15809 -12.1686
lowerback 13.1231 -1.31535 -10.1698
upperback 2.22935 -3.40226 -4.94546
thorax -4.71458 -1.53641 1.04865
lowerneck -15.3476 2.58313 8.03376
upperneck 14.0519 0.722143 5.61793
head 6.88945 1.2856 0.60183
rclavicle 4.77083e-015 2.8625e-014
rhumerus -22.4729 -29.3001 0.742078
rradius 36.1012
rwrist -6.51035
rhand -19.768 -5.80952
rfingers 7.12502
rthumb 6.56376 -35.6878
lclavicle 4.77083e-015 2.8625e-014
lhumerus -25.9795 31.2621 37.3405
lradius 32.8555
lwrist 9.90404
lhand -21.1997 -2.17319
lfingers 7.12502
lthumb 5.1815 27.7435
rfemur -7.61175 -3.56846 25.6747
rtibia 47.6062
rfoot -4.04376 -20.176
rtoes -5.08675
lfemur -18.7806 0.457863 -4.73519
ltibia 32.6731
lfoot -11.242 18.9832
ltoes -5.76556
509
root 1.29151 18.0751 -21.5688 5.43847 2.13194 -12.1698
lowerback 13.2131 -1.3184 -10.3071
upperback 2.29661 -3.43681 -5.05799
thorax -4.68834 -1.55429 1.01215
lowerneck -15.3065 2.60754 8.08689
upperneck 14.103 0.724385 5.73485
head 6.90057 1.30168 0.631806
rclavicle 3.4191e-014 8.5875e-014
rhumerus -22.3199 -29.3064 0.91054
rradius 36.1474
rwrist -6.39434
rhand -19.7564 -5.76962
rfingers 7.12502
rthumb 6.57497 -35.6476
lclavicle 3.4191e-014 8.5875e-014
lhumerus -26.2423 31.387 37.5031
lradius 32.782
lwrist 9.88639
lhand -21.1623 -2.1178
lfingers 7.12502
lthumb 5.21761 27.798
rfemur -8.00409 -3.60032 25.7632
rtibia 47.7064
rfoot -5.01405 -20.7283
rtoes -5.24061
lfemur -18.3716 0.128272 -4.75925
ltibia 32.8475
lfoot -11.4082 19.4445
ltoes -5.54741
510
root 1.28877 18.064 -21.5188 5.17316 2.09271 -12.1969
lowerback 13.2982 -1.32611 -10.4233
upperback 2.36351 -3.47307 -5.15181
thorax -4.65954 -1.57344 0.983984
lowerneck -15.2536 2.64696 8.14867
upperneck 14.145 0.749537 5.8376
head 6.90695 1.32738 0.657968
rclavicle -1.43125e-014 9.54166e-015
rhumerus -22.1496 -29.2733 1.0576
rradius 36.2005
rwrist -6.29457
rhand -19.7381 -5.65355
rfingers 7.12502
rthumb 6.59269 -35.5309
lclavicle -1.43125e-014 9.54166e-015
lhumerus -26.5327 31.5476 37.6537
lradius 32.687
lwrist 9.84907
lhand -21.1238 -2.0448
lfingers 7.12502
lthumb 5.25483 27.87
rfemur -8.40708 -3.63648 25.8762
rtibia 47.7434
rfoot -5.94152 -21.2571
rtoes -5.40873
lfemur -17.9607 -0.178673 -4.7539
ltibia 33.025
lfoot -11.575 19.8884
ltoes -5.3381
